# xmcd
#
# Track frame offsets: 
#        150
#        11839
#        23579
#        37549
#        49791
#        69196
#        81415
#        95181
#        109288
#        122164
#        133277
#        147424
#        160425
#        173350
#        185949
#
# Disc length: 2662 seconds
#
# Revision: 0
# Processed by: cddbd v1.5.2PL0 Copyright (c) Steve Scherf et al.
# Submitted via: ExactAudioCopy v1.0b1
#
DISCID=d10a640f
DTITLE=Altemar Dutra - La última canción CD 1
DYEAR=2000
DGENRE=Pop
TTITLE0=Tres palabras
TTITLE1=La menntira
TTITLE2=Hasta siempre
TTITLE3=Aquellos ojos verdes
TTITLE4=Angelitos negros
TTITLE5=Estoy pensanndo en ti
TTITLE6=La pretendida
TTITLE7=Sabor a mí
TTITLE8=Todo de mí
TTITLE9=Vete de mí
TTITLE10=Dime que sí
TTITLE11=El día que me quieras
TTITLE12=El último romántico
TTITLE13=Sin ti
TTITLE14=Camarim
EXTD=
EXTT0=
EXTT1=
EXTT2=
EXTT3=
EXTT4=
EXTT5=
EXTT6=
EXTT7=
EXTT8=
EXTT9=
EXTT10=
EXTT11=
EXTT12=
EXTT13=
EXTT14=
PLAYORDER=
